<svg width="52" height="52" viewBox="0 0 52 52" fill="none" xmlns="http://www.w3.org/2000/svg">
<path d="M30.9766 26C30.9766 28.7485 28.7485 30.9766 26 30.9766C23.2515 30.9766 21.0234 28.7485 21.0234 26C21.0234 23.2515 23.2515 21.0234 26 21.0234C28.7485 21.0234 30.9766 23.2515 30.9766 26Z" fill="white"/>
<path d="M37.6384 17.1952C37.3992 16.547 37.0175 15.9602 36.5216 15.4786C36.04 14.9827 35.4536 14.601 34.805 14.3618C34.2789 14.1575 33.4886 13.9143 32.0331 13.848C30.4584 13.7762 29.9863 13.7607 26 13.7607C22.0133 13.7607 21.5412 13.7758 19.9669 13.8476C18.5114 13.9143 17.7207 14.1575 17.195 14.3618C16.5464 14.601 15.9596 14.9827 15.4784 15.4786C14.9825 15.9602 14.6008 16.5466 14.3612 17.1952C14.1569 17.7213 13.9137 18.512 13.8474 19.9676C13.7756 21.5418 13.7601 22.0139 13.7601 26.0006C13.7601 29.9869 13.7756 30.459 13.8474 32.0337C13.9137 33.4893 14.1569 34.2795 14.3612 34.8056C14.6008 35.4543 14.9821 36.0406 15.478 36.5222C15.9596 37.0182 16.546 37.3998 17.1946 37.639C17.7207 37.8438 18.5114 38.0869 19.9669 38.1532C21.5412 38.225 22.0129 38.2401 25.9996 38.2401C29.9867 38.2401 30.4588 38.225 32.0327 38.1532C33.4883 38.0869 34.2789 37.8438 34.805 37.639C36.1071 37.1368 37.1362 36.1077 37.6384 34.8056C37.8427 34.2795 38.0859 33.4893 38.1526 32.0337C38.2244 30.459 38.2395 29.9869 38.2395 26.0006C38.2395 22.0139 38.2244 21.5418 38.1526 19.9676C38.0863 18.512 37.8431 17.7213 37.6384 17.1952ZM26 33.6666C21.7657 33.6666 18.3332 30.2345 18.3332 26.0002C18.3332 21.7659 21.7657 18.3338 26 18.3338C30.2339 18.3338 33.6664 21.7659 33.6664 26.0002C33.6664 30.2345 30.2339 33.6666 26 33.6666ZM33.9695 19.8224C32.98 19.8224 32.1779 19.0202 32.1779 18.0307C32.1779 17.0413 32.98 16.2391 33.9695 16.2391C34.9589 16.2391 35.7611 17.0413 35.7611 18.0307C35.7607 19.0202 34.9589 19.8224 33.9695 19.8224Z" fill="white"/>
<path d="M26 0C11.6428 0 0 11.6428 0 26C0 40.3572 11.6428 52 26 52C40.3572 52 52 40.3572 52 26C52 11.6428 40.3572 0 26 0ZM40.8396 32.1552C40.7674 33.7445 40.5147 34.8296 40.1458 35.7794C39.3701 37.7848 37.7848 39.3701 35.7794 40.1458C34.83 40.5147 33.7445 40.767 32.1556 40.8396C30.5636 40.9122 30.055 40.9297 26.0004 40.9297C21.9454 40.9297 21.4372 40.9122 19.8448 40.8396C18.2559 40.767 17.1704 40.5147 16.221 40.1458C15.2245 39.7708 14.3223 39.1833 13.5764 38.4236C12.8171 37.6781 12.2296 36.7755 11.8546 35.7794C11.4857 34.83 11.233 33.7445 11.1608 32.1556C11.0874 30.5632 11.0703 30.0546 11.0703 26C11.0703 21.9454 11.0874 21.4368 11.1604 19.8448C11.2326 18.2555 11.4849 17.1704 11.8539 16.2206C12.2288 15.2245 12.8167 14.3219 13.5764 13.5764C14.3219 12.8167 15.2245 12.2292 16.2206 11.8542C17.1704 11.4853 18.2555 11.233 19.8448 11.1604C21.4368 11.0878 21.9454 11.0703 26 11.0703C30.0546 11.0703 30.5632 11.0878 32.1552 11.1608C33.7445 11.233 34.8296 11.4853 35.7794 11.8539C36.7755 12.2288 37.6781 12.8167 38.424 13.5764C39.1833 14.3223 39.7712 15.2245 40.1458 16.2206C40.5151 17.1704 40.7674 18.2555 40.84 19.8448C40.9126 21.4368 40.9297 21.9454 40.9297 26C40.9297 30.0546 40.9126 30.5632 40.8396 32.1552Z" fill="white"/>
</svg>
