<svg width="52" height="52" viewBox="0 0 52 52" fill="none" xmlns="http://www.w3.org/2000/svg">
<path d="M30.7379 22.3047C28.5124 22.3047 27.5185 23.5279 26.9624 24.3867V22.6021H22.7712C22.8256 23.7835 22.7712 35.2125 22.7712 35.2125H26.9624V28.1674C26.9624 27.7914 26.9865 27.4134 27.0996 27.1442C27.4033 26.3902 28.0925 25.6099 29.2508 25.6099C30.7672 25.6099 31.3736 26.7661 31.3736 28.4628V35.2094H35.5649H35.5659V27.9779C35.5638 24.1071 33.4954 22.3047 30.7379 22.3047ZM26.9593 24.4307H26.9331C26.9415 24.416 26.9541 24.4024 26.9593 24.3877V24.4307Z" fill="white"/>
<path d="M20.4483 22.6025H16.2571V35.2129H20.4483V22.6025Z" fill="white"/>
<path d="M26 0C11.6637 0 0 11.6637 0 26C0 40.3353 11.6637 52 26 52C40.3353 52 52 40.3353 52 26C52 11.6637 40.3374 0 26 0ZM39.7876 37.76C39.7876 38.8659 38.8701 39.7603 37.7359 39.7603H14.0871C12.956 39.7603 12.0375 38.8659 12.0375 37.76V13.8357C12.0375 12.7308 12.956 11.8354 14.0871 11.8354H37.7359C38.8691 11.8354 39.7876 12.7319 39.7876 13.8357V37.76Z" fill="white"/>
<path d="M18.381 16.5234C16.9483 16.5234 16.0099 17.4639 16.0099 18.7018C16.0099 19.9114 16.92 20.8802 18.3254 20.8802H18.3527C19.8147 20.8802 20.7248 19.9114 20.7248 18.7018C20.6965 17.465 19.8157 16.5234 18.381 16.5234Z" fill="white"/>
</svg>
