<svg width="52" height="52" viewBox="0 0 52 52" fill="none" xmlns="http://www.w3.org/2000/svg">
<path d="M26 0C11.6637 0 1.52588e-05 11.6637 1.52588e-05 26C1.52588e-05 40.3353 11.6637 52 26 52C40.3353 52 52 40.3353 52 26C52 11.6637 40.3374 0 26 0ZM37.5987 20.0493C37.6103 20.3069 37.6165 20.5667 37.6165 20.8264C37.6165 28.7345 31.5988 37.8501 20.5887 37.8501C17.2091 37.8501 14.063 36.8625 11.4155 35.1638C11.8836 35.2193 12.3601 35.2476 12.8429 35.2476C15.6476 35.2476 18.227 34.2903 20.2755 32.6859C17.6573 32.6377 15.4465 30.9076 14.6851 28.5292C15.0496 28.5983 15.4255 28.6371 15.8099 28.6371C16.3555 28.6371 16.8855 28.5659 17.3871 28.4287C14.6495 27.8799 12.5874 25.4617 12.5874 22.5607C12.5874 22.5356 12.5874 22.5094 12.5884 22.4853C13.3948 22.9325 14.3175 23.2027 15.2978 23.2331C13.6933 22.1617 12.6366 20.3289 12.6366 18.2532C12.6366 17.1556 12.9309 16.1272 13.4462 15.2433C16.3964 18.8648 20.8076 21.2464 25.7801 21.4977C25.6774 21.0589 25.6261 20.6033 25.6261 20.1331C25.6261 16.8289 28.3051 14.1489 31.6093 14.1489C33.331 14.1489 34.8842 14.8757 35.9775 16.0382C37.3422 15.7701 38.6198 15.2737 39.7792 14.5856C39.3289 15.9837 38.3832 17.1556 37.1442 17.8971C38.3559 17.7526 39.5121 17.4321 40.5814 16.9556C39.7834 18.1537 38.7686 19.2083 37.5987 20.0493Z" fill="white"/>
</svg>
