<svg width="52" height="52" viewBox="0 0 52 52" fill="none" xmlns="http://www.w3.org/2000/svg">
<path d="M22.7615 30.871L31.2189 25.9999L22.7615 21.1289V30.871Z" fill="white"/>
<path d="M26 0C11.6428 0 0 11.6428 0 26C0 40.3572 11.6428 52 26 52C40.3572 52 52 40.3572 52 26C52 11.6428 40.3572 0 26 0ZM42.246 26.0266C42.246 26.0266 42.246 31.2995 41.5771 33.8421C41.2022 35.2339 40.1049 36.3312 38.7132 36.7057C36.1705 37.375 26 37.375 26 37.375C26 37.375 15.856 37.375 13.2868 36.6791C11.8951 36.3046 10.7978 35.2069 10.4229 33.8152C9.75357 31.2995 9.75357 26 9.75357 26C9.75357 26 9.75357 20.7275 10.4229 18.1848C10.7974 16.7931 11.9217 15.6688 13.2868 15.2943C15.8295 14.625 26 14.625 26 14.625C26 14.625 36.1705 14.625 38.7132 15.3209C40.1049 15.6954 41.2022 16.7931 41.5771 18.1848C42.273 20.7275 42.246 26.0266 42.246 26.0266Z" fill="white"/>
</svg>
