<svg id="Layer_2" data-name="Layer 2" xmlns="http://www.w3.org/2000/svg" xmlns:xlink="http://www.w3.org/1999/xlink" viewBox="0 0 64 64"><defs><style>.cls-1{fill:url(#linear-gradient);}</style><linearGradient id="linear-gradient" x1="4.33" y1="32" x2="59.67" y2="32" gradientUnits="userSpaceOnUse"><stop offset="0" stop-color="#b812e6" id="id_102"></stop><stop offset="0.23" stop-color="#b50de3" id="id_103"></stop><stop offset="0.72" stop-color="#6b0dd6" id="id_104"></stop><stop offset="1" stop-color="#2c21c4" id="id_105"></stop></linearGradient></defs><path class="cls-1" d="M58.44,43.61a4.11,4.11,0,0,0-2-1.11l1.44-1.45a4.21,4.21,0,0,0,0-5.95,4.13,4.13,0,0,0-2-1.1l1.26-1.26a4.21,4.21,0,0,0-5.95-6l-9.5,9.5-14-14,9.5-9.5a4.21,4.21,0,0,0-5.95-5.95L30,8.14a4.13,4.13,0,0,0-1.1-2,4.21,4.21,0,0,0-5.95,0L21.5,7.57a4.11,4.11,0,0,0-1.11-2,4.21,4.21,0,0,0-6,0L12.69,7.31l-.52-.52a4.07,4.07,0,0,0-5.76,5.76l.52.52L5.56,14.44a4.21,4.21,0,0,0,0,6,4.11,4.11,0,0,0,2,1.11L6.13,23a4.21,4.21,0,0,0,0,5.95,4.13,4.13,0,0,0,2,1.1L6.88,31.26a4.21,4.21,0,0,0,6,5.95L22,28.09l14,14-9.12,9.13a4.21,4.21,0,0,0,6,5.95L34,55.86a4.13,4.13,0,0,0,1.1,2,4.21,4.21,0,0,0,5.95,0l1.45-1.44a4.11,4.11,0,0,0,1.11,2,4.21,4.21,0,0,0,6,0l1.37-1.37.52.52a4.07,4.07,0,0,0,5.76-5.76l-.52-.52,1.75-1.75A4.21,4.21,0,0,0,58.44,43.61ZM7.83,11.13a2.05,2.05,0,0,1,0-2.92,2.1,2.1,0,0,1,2.92,0l.52.52L8.35,11.65ZM7,19a2.22,2.22,0,0,1,0-3.12L15.86,7A2.21,2.21,0,1,1,19,10.09L10.09,19A2.21,2.21,0,0,1,7,19Zm.57,8.5a2.21,2.21,0,0,1,0-3.12L24.36,7.54a2.21,2.21,0,1,1,3.12,3.12L10.66,27.48A2.21,2.21,0,0,1,7.54,27.48Zm3.88,8.32a2.21,2.21,0,0,1-3.12,0,2.2,2.2,0,0,1,0-3.12L32.68,8.3a2.2,2.2,0,0,1,3.12,0,2.21,2.21,0,0,1,0,3.12Zm12-9.12,2.92-2.93,14,14-2.92,2.92Zm8,29a2.25,2.25,0,0,1-3.12,0,2.21,2.21,0,0,1,0-3.12L52.58,28.2a2.21,2.21,0,0,1,3.77,1.56,2.17,2.17,0,0,1-.65,1.56Zm8.32.76a2.21,2.21,0,1,1-3.12-3.12L53.34,36.52a2.21,2.21,0,1,1,3.12,3.12Zm16.15-3.21a2.05,2.05,0,0,1,0,2.92,2.1,2.1,0,0,1-2.92,0l-.52-.52,2.92-2.92ZM57,48.14,48.14,57A2.27,2.27,0,0,1,45,57a2.21,2.21,0,0,1,0-3.12L53.91,45a2.18,2.18,0,0,1,1.55-.64A2.21,2.21,0,0,1,57,48.14Z" id="id_101"></path></svg>