<svg width="141" height="30" viewBox="0 0 141 30" fill="none" xmlns="http://www.w3.org/2000/svg">
<g clip-path="url(#clip0_1_1841)">
<path d="M0 0.179688H17.6828V4.33353H4.82636V12.8074H17.1835V16.8366H4.82636V29.4228H0V0.179688Z" fill="white"/>
<path d="M20.8341 10.3982H25.4109V29.4228H20.8341V10.3982ZM20.6261 1.25977H25.6189V7.07514H20.6261V1.25977Z" fill="white"/>
<path d="M32.4697 14.1371H28.309V10.3986H32.4697V5.33091L37.0464 4.33398V10.3986H41.956V14.1371H37.0464V29.4232H32.4697V14.1371Z" fill="white"/>
<path d="M56.5755 9.94141C58.7115 9.94141 60.3757 10.5368 61.5685 11.7276C62.7889 12.8906 63.3991 14.6491 63.3991 17.0029V29.4229H58.864V17.8753C58.864 16.4906 58.5034 15.4522 57.7821 14.7599C57.0609 14.0676 56.0624 13.7214 54.7864 13.7214C53.566 13.7214 52.4981 14.0399 51.5827 14.6768C50.6674 15.3137 49.9878 16.186 49.544 17.2937V29.4229H44.9673V10.3983H49.544V13.3891C50.3207 12.2814 51.3053 11.4368 52.4981 10.8553C53.6908 10.246 55.0499 9.94141 56.5755 9.94141Z" fill="white"/>
<path d="M84.8219 18.4568C84.8219 19.2599 84.7248 20.2568 84.5307 21.4476H71.1333C71.6326 24.5768 73.6852 26.1414 77.2911 26.1414C79.2882 26.1414 81.1744 25.6429 82.9496 24.646V28.4676C80.897 29.4091 78.8444 29.8799 76.7918 29.8799C74.7392 29.8799 72.9363 29.4645 71.383 28.6337C69.8297 27.8029 68.6231 26.6399 67.7632 25.1445C66.9311 23.6214 66.515 21.8629 66.515 19.8691C66.515 17.9029 66.9033 16.1722 67.68 14.6768C68.4844 13.1537 69.6078 11.9906 71.0501 11.1876C72.5202 10.3568 74.2122 9.94141 76.1261 9.94141C78.7889 9.94141 80.897 10.7168 82.4503 12.2676C84.0314 13.7906 84.8219 15.8537 84.8219 18.4568ZM76.2093 13.6799C74.7392 13.6799 73.5604 14.0953 72.6728 14.926C71.8129 15.7291 71.2859 16.906 71.0917 18.4568H80.8693C80.8693 16.9337 80.4671 15.7568 79.6627 14.926C78.8583 14.0953 77.7072 13.6799 76.2093 13.6799Z" fill="white"/>
<path d="M93.5269 26.3076C94.4977 26.3076 95.2605 26.1137 95.8153 25.726C96.37 25.3106 96.6474 24.7429 96.6474 24.0229C96.6474 23.386 96.37 22.8737 95.8153 22.486C95.2883 22.0706 94.2342 21.586 92.6532 21.0322C90.6006 20.3122 89.1166 19.5229 88.2013 18.6645C87.2859 17.806 86.8283 16.7399 86.8283 15.466C86.8283 13.8322 87.5217 12.5029 88.9086 11.4783C90.2955 10.4537 92.1123 9.94141 94.359 9.94141C96.5781 9.94141 98.7693 10.4814 100.933 11.5614V15.3829C99.9343 14.8014 98.8664 14.3445 97.7292 14.0122C96.5919 13.6522 95.4824 13.4722 94.4007 13.4722C93.4853 13.4722 92.7641 13.6383 92.2371 13.9706C91.7378 14.2753 91.4882 14.7045 91.4882 15.2583C91.4882 15.7568 91.7101 16.1722 92.1539 16.5045C92.6254 16.8368 93.5269 17.2245 94.8583 17.6676C96.5226 18.2491 97.8124 18.8306 98.7277 19.4122C99.6708 19.966 100.337 20.5891 100.725 21.2814C101.113 21.9737 101.307 22.8045 101.307 23.7737C101.307 25.7122 100.628 27.2214 99.2686 28.3014C97.9095 29.3537 96.0094 29.8799 93.5685 29.8799C91.4882 29.8799 89.2969 29.2429 86.9947 27.9691V24.1891C88.021 24.826 89.1028 25.3383 90.24 25.726C91.3772 26.1137 92.4729 26.3076 93.5269 26.3076Z" fill="white"/>
<path d="M110.064 26.3076C111.035 26.3076 111.797 26.1137 112.352 25.726C112.907 25.3106 113.184 24.7429 113.184 24.0229C113.184 23.386 112.907 22.8737 112.352 22.486C111.825 22.0706 110.771 21.586 109.19 21.0322C107.137 20.3122 105.653 19.5229 104.738 18.6645C103.823 17.806 103.365 16.7399 103.365 15.466C103.365 13.8322 104.059 12.5029 105.445 11.4783C106.832 10.4537 108.649 9.94141 110.896 9.94141C113.115 9.94141 115.306 10.4814 117.47 11.5614V15.3829C116.471 14.8014 115.403 14.3445 114.266 14.0122C113.129 13.6522 112.019 13.4722 110.938 13.4722C110.022 13.4722 109.301 13.6383 108.774 13.9706C108.275 14.2753 108.025 14.7045 108.025 15.2583C108.025 15.7568 108.247 16.1722 108.691 16.5045C109.162 16.8368 110.064 17.2245 111.395 17.6676C113.059 18.2491 114.349 18.8306 115.265 19.4122C116.208 19.966 116.873 20.5891 117.262 21.2814C117.65 21.9737 117.844 22.8045 117.844 23.7737C117.844 25.7122 117.165 27.2214 115.806 28.3014C114.446 29.3537 112.546 29.8799 110.105 29.8799C108.025 29.8799 105.834 29.2429 103.532 27.9691V24.1891C104.558 24.826 105.64 25.3383 106.777 25.726C107.914 26.1137 109.01 26.3076 110.064 26.3076Z" fill="white"/>
<path d="M130.47 29.8799C128.39 29.8799 126.559 29.4645 124.978 28.6337C123.397 27.7753 122.177 26.5983 121.317 25.1029C120.457 23.6076 120.027 21.8768 120.027 19.9106C120.027 17.9445 120.457 16.2137 121.317 14.7183C122.177 13.2229 123.397 12.0599 124.978 11.2291C126.559 10.3706 128.39 9.94141 130.47 9.94141C132.55 9.94141 134.367 10.3706 135.921 11.2291C137.502 12.0599 138.722 13.2229 139.582 14.7183C140.442 16.2137 140.872 17.9445 140.872 19.9106C140.872 21.8768 140.442 23.6076 139.582 25.1029C138.722 26.5983 137.502 27.7753 135.921 28.6337C134.367 29.4645 132.55 29.8799 130.47 29.8799ZM130.47 26.1414C132.134 26.1414 133.507 25.5737 134.589 24.4383C135.671 23.3029 136.212 21.7937 136.212 19.9106C136.212 18.0276 135.671 16.5183 134.589 15.3829C133.507 14.2476 132.134 13.6799 130.47 13.6799C128.806 13.6799 127.433 14.2476 126.351 15.3829C125.269 16.5183 124.728 18.0276 124.728 19.9106C124.728 21.7937 125.269 23.3029 126.351 24.4383C127.433 25.5737 128.806 26.1414 130.47 26.1414Z" fill="white"/>
<path d="M45.2171 0H139.988V4.03846H45.2171V0Z" fill="white"/>
</g>
<defs>
<clipPath id="clip0_1_1841">
<rect width="141" height="30" fill="white"/>
</clipPath>
</defs>
</svg>
