<svg width="94" height="20" viewBox="0 0 94 20" fill="none" xmlns="http://www.w3.org/2000/svg">
<g clip-path="url(#clip0_1_1415)">
<path d="M0 0.120005H11.7885V2.88923H3.21757V8.53846H11.4557V11.2246H3.21757V19.6154H0V0.120005Z" fill="black"/>
<path d="M13.8894 6.93231H16.9406V19.6154H13.8894V6.93231ZM13.7507 0.840004H17.0793V4.71692H13.7507V0.840004Z" fill="black"/>
<path d="M21.6465 9.42461H18.8727V6.93231H21.6465V3.55385L24.6976 2.88923V6.93231H27.9707V9.42461H24.6976V19.6154H21.6465V9.42461Z" fill="black"/>
<path d="M37.717 6.62769C39.141 6.62769 40.2505 7.02462 41.0456 7.81846C41.8593 8.59385 42.2661 9.76615 42.2661 11.3354V19.6154H39.2427V11.9169C39.2427 10.9938 39.0023 10.3015 38.5214 9.84C38.0406 9.37846 37.3749 9.14769 36.5243 9.14769C35.7106 9.14769 34.9987 9.36 34.3885 9.78462C33.7782 10.2092 33.3252 10.7908 33.0293 11.5292V19.6154H29.9782V6.93231H33.0293V8.92615C33.5471 8.18769 34.2036 7.62462 34.9987 7.23692C35.7939 6.83077 36.7 6.62769 37.717 6.62769Z" fill="black"/>
<path d="M56.5479 12.3046C56.5479 12.84 56.4832 13.5046 56.3538 14.2985H47.4222C47.7551 16.3846 49.1235 17.4277 51.5274 17.4277C52.8588 17.4277 54.1163 17.0954 55.2997 16.4308V18.9785C53.9313 19.6062 52.5629 19.92 51.1946 19.92C49.8262 19.92 48.6242 19.6431 47.5887 19.0892C46.5531 18.5354 45.7487 17.76 45.1755 16.7631C44.6207 15.7477 44.3433 14.5754 44.3433 13.2462C44.3433 11.9354 44.6022 10.7815 45.12 9.78462C45.6563 8.76923 46.4052 7.99385 47.3668 7.45846C48.3468 6.90462 49.4748 6.62769 50.7507 6.62769C52.526 6.62769 53.9313 7.14462 54.9669 8.17846C56.0209 9.19385 56.5479 10.5692 56.5479 12.3046ZM50.8062 9.12C49.8262 9.12 49.0403 9.39692 48.4485 9.95077C47.8753 10.4862 47.5239 11.2708 47.3945 12.3046H53.9129C53.9129 11.2892 53.6447 10.5046 53.1085 9.95077C52.5722 9.39692 51.8048 9.12 50.8062 9.12Z" fill="black"/>
<path d="M62.3513 17.5385C62.9985 17.5385 63.507 17.4092 63.8769 17.1508C64.2467 16.8738 64.4316 16.4954 64.4316 16.0154C64.4316 15.5908 64.2467 15.2492 63.8769 14.9908C63.5255 14.7138 62.8228 14.3908 61.7688 14.0215C60.4004 13.5415 59.4111 13.0154 58.8009 12.4431C58.1906 11.8708 57.8855 11.16 57.8855 10.3108C57.8855 9.22154 58.3478 8.33539 59.2724 7.65231C60.197 6.96923 61.4082 6.62769 62.906 6.62769C64.3854 6.62769 65.8462 6.98769 67.2886 7.70769V10.2554C66.6229 9.86769 65.911 9.56308 65.1528 9.34154C64.3946 9.10154 63.655 8.98154 62.9338 8.98154C62.3235 8.98154 61.8428 9.09231 61.4914 9.31385C61.1586 9.51692 60.9921 9.80308 60.9921 10.1723C60.9921 10.5046 61.1401 10.7815 61.4359 11.0031C61.7503 11.2246 62.3513 11.4831 63.2389 11.7785C64.3484 12.1662 65.2083 12.5538 65.8185 12.9415C66.4472 13.3108 66.891 13.7262 67.1499 14.1877C67.4088 14.6492 67.5382 15.2031 67.5382 15.8492C67.5382 17.1415 67.0852 18.1477 66.1791 18.8677C65.273 19.5692 64.0063 19.92 62.379 19.92C60.9921 19.92 59.5313 19.4954 57.9965 18.6462V16.1262C58.6807 16.5508 59.4018 16.8923 60.16 17.1508C60.9182 17.4092 61.6486 17.5385 62.3513 17.5385Z" fill="black"/>
<path d="M73.3759 17.5385C74.0231 17.5385 74.5316 17.4092 74.9014 17.1508C75.2713 16.8738 75.4562 16.4954 75.4562 16.0154C75.4562 15.5908 75.2713 15.2492 74.9014 14.9908C74.5501 14.7138 73.8474 14.3908 72.7934 14.0215C71.425 13.5415 70.4357 13.0154 69.8254 12.4431C69.2152 11.8708 68.9101 11.16 68.9101 10.3108C68.9101 9.22154 69.3724 8.33539 70.297 7.65231C71.2216 6.96923 72.4328 6.62769 73.9306 6.62769C75.41 6.62769 76.8708 6.98769 78.3132 7.70769V10.2554C77.6475 9.86769 76.9355 9.56308 76.1774 9.34154C75.4192 9.10154 74.6795 8.98154 73.9584 8.98154C73.3481 8.98154 72.8673 9.09231 72.516 9.31385C72.1831 9.51692 72.0167 9.80308 72.0167 10.1723C72.0167 10.5046 72.1646 10.7815 72.4605 11.0031C72.7749 11.2246 73.3759 11.4831 74.2635 11.7785C75.373 12.1662 76.2328 12.5538 76.8431 12.9415C77.4718 13.3108 77.9156 13.7262 78.1745 14.1877C78.4334 14.6492 78.5628 15.2031 78.5628 15.8492C78.5628 17.1415 78.1098 18.1477 77.2037 18.8677C76.2976 19.5692 75.0309 19.92 73.4036 19.92C72.0167 19.92 70.5559 19.4954 69.021 18.6462V16.1262C69.7052 16.5508 70.4264 16.8923 71.1846 17.1508C71.9427 17.4092 72.6732 17.5385 73.3759 17.5385Z" fill="black"/>
<path d="M86.98 19.92C85.5932 19.92 84.3727 19.6431 83.3187 19.0892C82.2646 18.5169 81.451 17.7323 80.8778 16.7354C80.3045 15.7385 80.0179 14.5846 80.0179 13.2738C80.0179 11.9631 80.3045 10.8092 80.8778 9.81231C81.451 8.81539 82.2646 8.04 83.3187 7.48615C84.3727 6.91385 85.5932 6.62769 86.98 6.62769C88.3669 6.62769 89.5781 6.91385 90.6137 7.48615C91.6677 8.04 92.4814 8.81539 93.0546 9.81231C93.6279 10.8092 93.9145 11.9631 93.9145 13.2738C93.9145 14.5846 93.6279 15.7385 93.0546 16.7354C92.4814 17.7323 91.6677 18.5169 90.6137 19.0892C89.5781 19.6431 88.3669 19.92 86.98 19.92ZM86.98 17.4277C88.0896 17.4277 89.0049 17.0492 89.7261 16.2923C90.4473 15.5354 90.8079 14.5292 90.8079 13.2738C90.8079 12.0185 90.4473 11.0123 89.7261 10.2554C89.0049 9.49846 88.0896 9.12 86.98 9.12C85.8705 9.12 84.9552 9.49846 84.234 10.2554C83.5128 11.0123 83.1522 12.0185 83.1522 13.2738C83.1522 14.5292 83.5128 15.5354 84.234 16.2923C84.9552 17.0492 85.8705 17.4277 86.98 17.4277Z" fill="black"/>
<path d="M30.1447 0H93.3251V2.69231H30.1447V0Z" fill="black"/>
</g>
<defs>
<clipPath id="clip0_1_1415">
<rect width="94" height="20" fill="white"/>
</clipPath>
</defs>
</svg>
